<?xml version="1.0" encoding="UTF-8"?>
<svg id="Calque_2" data-name="Calque 2" xmlns="http://www.w3.org/2000/svg" viewBox="0 0 411.79 141.73">
  <defs>
    <style>
      .cls-1 {
        fill: #3ce7f0;
      }

      .cls-1, .cls-2, .cls-3 {
        stroke-width: 0px;
      }

      .cls-2 {
        fill: #231955;
      }

      .cls-3 {
        fill: #ff87a1;
      }
    </style>
  </defs>
  <g>
    <path class="cls-2" d="M165.41,93.46v-45.18c0-.6.46-1.06,1.06-1.06h9c.6,0,1.06.46,1.06,1.06v18.59c1.85-3.31,4.7-5.56,9.26-5.56,6.68,0,11.71,5.03,11.71,13.43v18.72c0,.6-.53,1.06-1.12,1.06h-8.93c-.6,0-1.06-.46-1.06-1.06v-15.94c0-4.04-1.65-6.02-4.9-6.02s-4.96,1.98-4.96,6.02v15.94c0,.6-.46,1.06-1.06,1.06h-9c-.6,0-1.06-.46-1.06-1.06Z"/>
    <path class="cls-2" d="M207.49,105.89l4.76-11.38-12.57-31.29c-.26-.73.13-1.12.86-1.12h9.2c.53,0,1.06.26,1.26.79l6.61,18.65,6.68-18.65c.2-.53.73-.79,1.26-.79h9.2c.73,0,1.06.4.79,1.12l-17.13,43.06c-.2.53-.73.79-1.26.79h-8.8c-.79,0-1.26-.4-.86-1.19Z"/>
    <path class="cls-2" d="M240.43,93.46v-30.3c0-.6.46-1.06,1.06-1.06h8.73c.53,0,.99.26.99,1.12l.26,3.24c1.85-3.04,4.83-5.16,9.06-5.16,3.97,0,7.14,1.92,9,5.42,1.92-3.18,5.16-5.42,9.92-5.42,7.08,0,11.44,4.96,11.44,13.43v18.72c0,.6-.46,1.06-1.06,1.06h-9c-.6,0-1.06-.46-1.06-1.06v-16.07c0-3.9-1.32-5.89-4.3-5.89s-4.3,1.98-4.3,5.89v16.07c0,.6-.46,1.06-1.06,1.06h-8.86c-.73,0-1.19-.46-1.19-1.06v-16.07c0-3.9-1.26-5.89-4.23-5.89-2.78,0-4.3,1.98-4.3,5.89v16.07c0,.6-.46,1.06-1.06,1.06h-9c-.6,0-1.06-.46-1.06-1.06Z"/>
    <path class="cls-2" d="M296.06,78.31c0-9.53,6.15-17,15.08-17,4.56,0,7.67,1.65,9.72,4.5l.13-2.65c0-.6.46-1.06,1.06-1.06h8.2c.6,0,1.06.46,1.06,1.06v30.3c0,.6-.53,1.06-1.12,1.06h-8.14c-.6,0-1.06-.46-1.06-1.06l-.13-2.71c-2.18,2.84-5.29,4.56-9.72,4.56-8.93,0-15.08-7.41-15.08-17ZM313.66,85.25c3.9,0,6.62-2.78,6.62-7.01s-2.71-6.88-6.62-6.88-6.75,2.78-6.75,6.95,2.91,6.95,6.75,6.95Z"/>
    <path class="cls-2" d="M336.02,47.88c2.91,0,5.36,2.32,5.36,5.42s-2.45,5.42-5.36,5.42-5.36-2.32-5.36-5.42,2.45-5.42,5.36-5.42ZM338.2,93.46v-30.3c0-.6.46-1.06,1.06-1.06h9.13c.6,0,1.06.46,1.06,1.06v30.3c0,.6-.46,1.06-1.06,1.06h-9.13c-.6,0-1.06-.46-1.06-1.06ZM351.7,47.88c2.98,0,5.42,2.32,5.42,5.42s-2.45,5.42-5.42,5.42-5.36-2.32-5.36-5.42,2.45-5.42,5.36-5.42Z"/>
    <path class="cls-2" d="M354.67,78.31c0-9.53,6.15-17,15.08-17,4.56,0,7.67,1.65,9.72,4.5l.13-2.65c0-.6.46-1.06,1.06-1.06h8.2c.6,0,1.06.46,1.06,1.06v30.3c0,.6-.53,1.06-1.12,1.06h-8.14c-.6,0-1.06-.46-1.06-1.06l-.13-2.71c-2.18,2.84-5.29,4.56-9.72,4.56-8.93,0-15.08-7.41-15.08-17ZM372.27,85.25c3.9,0,6.62-2.78,6.62-7.01s-2.71-6.88-6.62-6.88-6.75,2.78-6.75,6.95,2.91,6.95,6.75,6.95Z"/>
  </g>
  <g>
    <g>
      <g>
        <path class="cls-2" d="M30.85,85.04c2.41-.7,4.97-1.07,7.61-1.05,14.23.13,25.87,11.77,26,26,.02,2.65-.34,5.2-1.05,7.62-1.1,3.77-5.3,5.7-8.88,4.07-.08-.04-.16-.07-.24-.11-2.92-1.34-4.33-4.65-3.45-7.74.32-1.14.5-2.34.5-3.58,0-7.25-5.87-13.12-13.12-13.12-1.24,0-2.44.17-3.58.5-3.09.88-6.4-.53-7.74-3.45-.04-.08-.08-.16-.11-.25-1.62-3.57.3-7.78,4.07-8.88Z"/>
        <path class="cls-2" d="M75.12,85.62c-1.96,3.32-3.54,6.9-4.67,10.67-.35,1.16-1.94,1.27-2.44.18-5.21-11.24-16.6-19.05-29.78-19.05h-9.79c-3.62,0-6.56-2.94-6.56-6.56s2.94-6.56,6.56-6.56h9.79c15.02,0,28.38,7.24,36.76,18.42.64.85.68,1.99.14,2.9Z"/>
      </g>
      <g>
        <path class="cls-3" d="M63.37,24.13c.7,2.41,1.07,4.97,1.05,7.61-.13,14.23-11.77,25.87-26,26-2.65.02-5.2-.34-7.62-1.05-3.77-1.1-5.7-5.3-4.07-8.88.04-.08.07-.16.11-.24,1.34-2.92,4.65-4.33,7.74-3.45,1.14.32,2.34.5,3.58.5,7.25,0,13.12-5.87,13.12-13.12,0-1.24-.17-2.44-.5-3.58-.88-3.09.53-6.4,3.45-7.74.08-.04.16-.08.25-.11,3.57-1.62,7.78.3,8.88,4.07Z"/>
        <path class="cls-3" d="M84.15,21.84v9.64c0,15.02-7.24,28.37-18.42,36.76-.85.64-1.99.68-2.9.14-3.33-1.96-6.9-3.54-10.67-4.67-1.16-.35-1.27-1.94-.18-2.44,11.24-5.21,19.05-16.6,19.05-29.78v-9.79c0-3.58,2.87-6.49,6.43-6.56,3.68-.07,6.69,3.03,6.69,6.71Z"/>
      </g>
      <g>
        <path class="cls-2" d="M124.28,56.69c-2.41.7-4.97,1.07-7.61,1.05-14.23-.13-25.87-11.77-26-26-.02-2.65.34-5.2,1.05-7.62,1.1-3.77,5.3-5.7,8.88-4.07.08.04.16.07.24.11,2.92,1.34,4.33,4.65,3.45,7.74-.32,1.14-.5,2.34-.5,3.58,0,7.25,5.87,13.12,13.12,13.12,1.24,0,2.44-.17,3.58-.5,3.09-.88,6.4.53,7.74,3.45.04.08.08.16.11.25,1.62,3.57-.3,7.78-4.07,8.88Z"/>
        <path class="cls-2" d="M133.33,70.86c0,3.63-2.94,6.56-6.56,6.56h-9.8c-15.02,0-28.38-7.24-36.76-18.42-.63-.85-.68-1.99-.14-2.9,1.96-3.32,3.54-6.9,4.67-10.67.35-1.16,1.94-1.27,2.44-.18,5.21,11.24,16.6,19.05,29.78,19.05h9.8c3.62,0,6.56,2.94,6.56,6.56Z"/>
      </g>
      <g>
        <path class="cls-1" d="M91.76,117.6c-.7-2.41-1.07-4.97-1.05-7.61.13-14.23,11.77-25.87,26-26,2.65-.02,5.2.34,7.62,1.05,3.77,1.1,5.7,5.3,4.07,8.88-.04.08-.07.16-.11.24-1.34,2.92-4.65,4.33-7.74,3.45-1.14-.32-2.34-.5-3.58-.5-7.25,0-13.12,5.87-13.12,13.12,0,1.24.17,2.44.5,3.58.88,3.09-.53,6.4-3.45,7.74-.08.04-.16.08-.25.11-3.57,1.62-7.78-.3-8.88-4.07Z"/>
        <path class="cls-1" d="M103.02,78c1.16.35,1.27,1.94.18,2.44-11.24,5.21-19.05,16.6-19.05,29.78v9.66c0,3.68-3.01,6.78-6.69,6.71s-6.43-2.98-6.43-6.56v-9.8c0-15.02,7.24-28.37,18.42-36.76.85-.64,1.99-.68,2.9-.14,3.32,1.96,6.9,3.54,10.67,4.67Z"/>
      </g>
    </g>
    <g>
      <circle class="cls-3" cx="38.24" cy="31.49" r="6.56"/>
      <circle class="cls-2" cx="38.24" cy="110.24" r="6.56"/>
      <circle class="cls-1" cx="117" cy="110.24" r="6.56"/>
      <circle class="cls-2" cx="117" cy="31.49" r="6.56"/>
    </g>
  </g>
</svg>